<mxfile host="Electron" modified="2023-05-30T10:19:51.737Z" agent="Mozilla/5.0 (Windows NT 10.0; Win64; x64) AppleWebKit/537.36 (KHTML, like Gecko) draw.io/21.2.8 Chrome/112.0.5615.165 Electron/24.2.0 Safari/537.36" etag="TYfp3yTv3zzwq3u0gyY2" version="21.2.8" type="device">
  <diagram id="C5RBs43oDa-KdzZeNtuy" name="Page-1">
    <mxGraphModel dx="2651" dy="2307" grid="1" gridSize="10" guides="1" tooltips="1" connect="1" arrows="1" fold="1" page="1" pageScale="1" pageWidth="827" pageHeight="1169" math="0" shadow="0">
      <root>
        <mxCell id="WIyWlLk6GJQsqaUBKTNV-0" />
        <mxCell id="WIyWlLk6GJQsqaUBKTNV-1" parent="WIyWlLk6GJQsqaUBKTNV-0" />
        <mxCell id="CoUMW_o9CPJdUUEnbHTe-2" value="" style="edgeStyle=none;curved=1;rounded=0;orthogonalLoop=1;jettySize=auto;html=1;endArrow=open;startSize=14;endSize=14;sourcePerimeterSpacing=8;targetPerimeterSpacing=8;" edge="1" parent="WIyWlLk6GJQsqaUBKTNV-1" source="WIyWlLk6GJQsqaUBKTNV-3" target="CoUMW_o9CPJdUUEnbHTe-4">
          <mxGeometry relative="1" as="geometry">
            <mxPoint x="220" y="190" as="targetPoint" />
          </mxGeometry>
        </mxCell>
        <mxCell id="CoUMW_o9CPJdUUEnbHTe-49" value="" style="edgeStyle=none;curved=1;rounded=0;orthogonalLoop=1;jettySize=auto;html=1;endArrow=open;startSize=14;endSize=14;sourcePerimeterSpacing=8;targetPerimeterSpacing=8;" edge="1" parent="WIyWlLk6GJQsqaUBKTNV-1" source="WIyWlLk6GJQsqaUBKTNV-3" target="CoUMW_o9CPJdUUEnbHTe-4">
          <mxGeometry relative="1" as="geometry" />
        </mxCell>
        <mxCell id="WIyWlLk6GJQsqaUBKTNV-3" value="small program in startup folder" style="rounded=1;whiteSpace=wrap;html=1;fontSize=12;glass=0;strokeWidth=1;shadow=0;fillColor=#dae8fc;strokeColor=#6c8ebf;" parent="WIyWlLk6GJQsqaUBKTNV-1" vertex="1">
          <mxGeometry x="-20" y="210" width="120" height="40" as="geometry" />
        </mxCell>
        <mxCell id="CoUMW_o9CPJdUUEnbHTe-6" value="" style="edgeStyle=none;curved=1;rounded=0;orthogonalLoop=1;jettySize=auto;html=1;endArrow=open;startSize=14;endSize=14;sourcePerimeterSpacing=8;targetPerimeterSpacing=8;" edge="1" parent="WIyWlLk6GJQsqaUBKTNV-1" source="CoUMW_o9CPJdUUEnbHTe-4" target="CoUMW_o9CPJdUUEnbHTe-5">
          <mxGeometry relative="1" as="geometry" />
        </mxCell>
        <mxCell id="CoUMW_o9CPJdUUEnbHTe-4" value="call other big programm" style="whiteSpace=wrap;html=1;" vertex="1" parent="WIyWlLk6GJQsqaUBKTNV-1">
          <mxGeometry x="160" y="200" width="120" height="60" as="geometry" />
        </mxCell>
        <mxCell id="CoUMW_o9CPJdUUEnbHTe-8" style="edgeStyle=none;curved=1;rounded=0;orthogonalLoop=1;jettySize=auto;html=1;endArrow=open;startSize=14;endSize=14;sourcePerimeterSpacing=8;targetPerimeterSpacing=8;" edge="1" parent="WIyWlLk6GJQsqaUBKTNV-1" source="CoUMW_o9CPJdUUEnbHTe-5" target="CoUMW_o9CPJdUUEnbHTe-7">
          <mxGeometry relative="1" as="geometry" />
        </mxCell>
        <mxCell id="CoUMW_o9CPJdUUEnbHTe-18" style="edgeStyle=none;curved=1;rounded=0;orthogonalLoop=1;jettySize=auto;html=1;endArrow=open;startSize=14;endSize=14;sourcePerimeterSpacing=8;targetPerimeterSpacing=8;" edge="1" parent="WIyWlLk6GJQsqaUBKTNV-1" source="CoUMW_o9CPJdUUEnbHTe-5" target="CoUMW_o9CPJdUUEnbHTe-19">
          <mxGeometry relative="1" as="geometry">
            <mxPoint x="530" y="290" as="targetPoint" />
          </mxGeometry>
        </mxCell>
        <mxCell id="CoUMW_o9CPJdUUEnbHTe-29" style="edgeStyle=none;curved=1;rounded=0;orthogonalLoop=1;jettySize=auto;html=1;endArrow=open;startSize=14;endSize=14;sourcePerimeterSpacing=8;targetPerimeterSpacing=8;" edge="1" parent="WIyWlLk6GJQsqaUBKTNV-1" source="CoUMW_o9CPJdUUEnbHTe-5" target="CoUMW_o9CPJdUUEnbHTe-28">
          <mxGeometry relative="1" as="geometry" />
        </mxCell>
        <mxCell id="CoUMW_o9CPJdUUEnbHTe-5" value="load config" style="whiteSpace=wrap;html=1;" vertex="1" parent="WIyWlLk6GJQsqaUBKTNV-1">
          <mxGeometry x="340" y="200" width="120" height="60" as="geometry" />
        </mxCell>
        <mxCell id="CoUMW_o9CPJdUUEnbHTe-14" style="edgeStyle=none;curved=1;rounded=0;orthogonalLoop=1;jettySize=auto;html=1;endArrow=open;startSize=14;endSize=14;sourcePerimeterSpacing=8;targetPerimeterSpacing=8;" edge="1" parent="WIyWlLk6GJQsqaUBKTNV-1" source="CoUMW_o9CPJdUUEnbHTe-7" target="CoUMW_o9CPJdUUEnbHTe-12">
          <mxGeometry relative="1" as="geometry" />
        </mxCell>
        <mxCell id="CoUMW_o9CPJdUUEnbHTe-15" style="edgeStyle=none;curved=1;rounded=0;orthogonalLoop=1;jettySize=auto;html=1;endArrow=open;startSize=14;endSize=14;sourcePerimeterSpacing=8;targetPerimeterSpacing=8;" edge="1" parent="WIyWlLk6GJQsqaUBKTNV-1" source="CoUMW_o9CPJdUUEnbHTe-7" target="CoUMW_o9CPJdUUEnbHTe-10">
          <mxGeometry relative="1" as="geometry" />
        </mxCell>
        <mxCell id="CoUMW_o9CPJdUUEnbHTe-16" style="edgeStyle=none;curved=1;rounded=0;orthogonalLoop=1;jettySize=auto;html=1;endArrow=open;startSize=14;endSize=14;sourcePerimeterSpacing=8;targetPerimeterSpacing=8;" edge="1" parent="WIyWlLk6GJQsqaUBKTNV-1" source="CoUMW_o9CPJdUUEnbHTe-7" target="CoUMW_o9CPJdUUEnbHTe-11">
          <mxGeometry relative="1" as="geometry" />
        </mxCell>
        <mxCell id="CoUMW_o9CPJdUUEnbHTe-17" style="edgeStyle=none;curved=1;rounded=0;orthogonalLoop=1;jettySize=auto;html=1;endArrow=open;startSize=14;endSize=14;sourcePerimeterSpacing=8;targetPerimeterSpacing=8;" edge="1" parent="WIyWlLk6GJQsqaUBKTNV-1" source="CoUMW_o9CPJdUUEnbHTe-7" target="CoUMW_o9CPJdUUEnbHTe-13">
          <mxGeometry relative="1" as="geometry" />
        </mxCell>
        <mxCell id="CoUMW_o9CPJdUUEnbHTe-7" value="start allowed ahk" style="whiteSpace=wrap;html=1;" vertex="1" parent="WIyWlLk6GJQsqaUBKTNV-1">
          <mxGeometry x="550" y="-40" width="120" height="60" as="geometry" />
        </mxCell>
        <mxCell id="CoUMW_o9CPJdUUEnbHTe-10" value="AHK" style="whiteSpace=wrap;html=1;fillColor=#d5e8d4;strokeColor=#82b366;" vertex="1" parent="WIyWlLk6GJQsqaUBKTNV-1">
          <mxGeometry x="820" y="-60" width="60" height="40" as="geometry" />
        </mxCell>
        <mxCell id="CoUMW_o9CPJdUUEnbHTe-11" value="AHK" style="whiteSpace=wrap;html=1;fillColor=#d5e8d4;strokeColor=#82b366;" vertex="1" parent="WIyWlLk6GJQsqaUBKTNV-1">
          <mxGeometry x="820" width="60" height="40" as="geometry" />
        </mxCell>
        <mxCell id="CoUMW_o9CPJdUUEnbHTe-12" value="AHK" style="whiteSpace=wrap;html=1;fillColor=#d5e8d4;strokeColor=#82b366;" vertex="1" parent="WIyWlLk6GJQsqaUBKTNV-1">
          <mxGeometry x="810" y="-110" width="60" height="40" as="geometry" />
        </mxCell>
        <mxCell id="CoUMW_o9CPJdUUEnbHTe-13" value="AHK" style="whiteSpace=wrap;html=1;fillColor=#d5e8d4;strokeColor=#82b366;" vertex="1" parent="WIyWlLk6GJQsqaUBKTNV-1">
          <mxGeometry x="820" y="50" width="60" height="40" as="geometry" />
        </mxCell>
        <mxCell id="CoUMW_o9CPJdUUEnbHTe-23" style="edgeStyle=none;curved=1;rounded=0;orthogonalLoop=1;jettySize=auto;html=1;endArrow=open;startSize=14;endSize=14;sourcePerimeterSpacing=8;targetPerimeterSpacing=8;" edge="1" parent="WIyWlLk6GJQsqaUBKTNV-1" source="CoUMW_o9CPJdUUEnbHTe-19" target="CoUMW_o9CPJdUUEnbHTe-20">
          <mxGeometry relative="1" as="geometry" />
        </mxCell>
        <mxCell id="CoUMW_o9CPJdUUEnbHTe-26" value="" style="edgeStyle=none;curved=1;rounded=0;orthogonalLoop=1;jettySize=auto;html=1;endArrow=open;startSize=14;endSize=14;sourcePerimeterSpacing=8;targetPerimeterSpacing=8;" edge="1" parent="WIyWlLk6GJQsqaUBKTNV-1" source="CoUMW_o9CPJdUUEnbHTe-19" target="CoUMW_o9CPJdUUEnbHTe-21">
          <mxGeometry relative="1" as="geometry" />
        </mxCell>
        <mxCell id="CoUMW_o9CPJdUUEnbHTe-27" style="edgeStyle=none;curved=1;rounded=0;orthogonalLoop=1;jettySize=auto;html=1;endArrow=open;startSize=14;endSize=14;sourcePerimeterSpacing=8;targetPerimeterSpacing=8;" edge="1" parent="WIyWlLk6GJQsqaUBKTNV-1" source="CoUMW_o9CPJdUUEnbHTe-19" target="CoUMW_o9CPJdUUEnbHTe-22">
          <mxGeometry relative="1" as="geometry" />
        </mxCell>
        <mxCell id="CoUMW_o9CPJdUUEnbHTe-19" value="baybass disabled ahk" style="whiteSpace=wrap;html=1;" vertex="1" parent="WIyWlLk6GJQsqaUBKTNV-1">
          <mxGeometry x="560" y="190" width="120" height="60" as="geometry" />
        </mxCell>
        <mxCell id="CoUMW_o9CPJdUUEnbHTe-20" value="AHK" style="whiteSpace=wrap;html=1;fillColor=#f8cecc;strokeColor=#b85450;" vertex="1" parent="WIyWlLk6GJQsqaUBKTNV-1">
          <mxGeometry x="810" y="155" width="60" height="40" as="geometry" />
        </mxCell>
        <mxCell id="CoUMW_o9CPJdUUEnbHTe-21" value="AHK" style="whiteSpace=wrap;html=1;fillColor=#f8cecc;strokeColor=#b85450;" vertex="1" parent="WIyWlLk6GJQsqaUBKTNV-1">
          <mxGeometry x="810" y="205" width="60" height="40" as="geometry" />
        </mxCell>
        <mxCell id="CoUMW_o9CPJdUUEnbHTe-22" value="AHK" style="whiteSpace=wrap;html=1;fillColor=#f8cecc;strokeColor=#b85450;" vertex="1" parent="WIyWlLk6GJQsqaUBKTNV-1">
          <mxGeometry x="810" y="265" width="60" height="40" as="geometry" />
        </mxCell>
        <mxCell id="CoUMW_o9CPJdUUEnbHTe-31" style="edgeStyle=none;curved=1;rounded=0;orthogonalLoop=1;jettySize=auto;html=1;endArrow=open;startSize=14;endSize=14;sourcePerimeterSpacing=8;targetPerimeterSpacing=8;" edge="1" parent="WIyWlLk6GJQsqaUBKTNV-1" source="CoUMW_o9CPJdUUEnbHTe-28" target="CoUMW_o9CPJdUUEnbHTe-30">
          <mxGeometry relative="1" as="geometry" />
        </mxCell>
        <mxCell id="CoUMW_o9CPJdUUEnbHTe-28" value="optional future" style="whiteSpace=wrap;html=1;fillColor=#d80073;fontColor=#ffffff;strokeColor=#A50040;" vertex="1" parent="WIyWlLk6GJQsqaUBKTNV-1">
          <mxGeometry x="560" y="370" width="120" height="60" as="geometry" />
        </mxCell>
        <mxCell id="CoUMW_o9CPJdUUEnbHTe-30" value="hotkey to kill all ahk" style="whiteSpace=wrap;html=1;" vertex="1" parent="WIyWlLk6GJQsqaUBKTNV-1">
          <mxGeometry x="760" y="370" width="120" height="60" as="geometry" />
        </mxCell>
        <mxCell id="CoUMW_o9CPJdUUEnbHTe-34" style="edgeStyle=none;curved=1;rounded=0;orthogonalLoop=1;jettySize=auto;html=1;endArrow=open;startSize=14;endSize=14;sourcePerimeterSpacing=8;targetPerimeterSpacing=8;" edge="1" parent="WIyWlLk6GJQsqaUBKTNV-1" source="CoUMW_o9CPJdUUEnbHTe-38" target="WIyWlLk6GJQsqaUBKTNV-3">
          <mxGeometry relative="1" as="geometry">
            <mxPoint x="-72.00000000000045" y="230" as="sourcePoint" />
          </mxGeometry>
        </mxCell>
        <mxCell id="CoUMW_o9CPJdUUEnbHTe-53" value="" style="edgeStyle=none;curved=1;rounded=0;orthogonalLoop=1;jettySize=auto;html=1;endArrow=open;startSize=14;endSize=14;sourcePerimeterSpacing=8;targetPerimeterSpacing=8;" edge="1" parent="WIyWlLk6GJQsqaUBKTNV-1" source="CoUMW_o9CPJdUUEnbHTe-35" target="CoUMW_o9CPJdUUEnbHTe-52">
          <mxGeometry relative="1" as="geometry" />
        </mxCell>
        <mxCell id="CoUMW_o9CPJdUUEnbHTe-35" value="windous start up" style="ellipse;whiteSpace=wrap;html=1;fillColor=#008a00;fontColor=#ffffff;strokeColor=#005700;" vertex="1" parent="WIyWlLk6GJQsqaUBKTNV-1">
          <mxGeometry x="-400" y="10" width="90" height="80" as="geometry" />
        </mxCell>
        <mxCell id="CoUMW_o9CPJdUUEnbHTe-39" value="" style="edgeStyle=none;curved=1;rounded=0;orthogonalLoop=1;jettySize=auto;html=1;endArrow=open;startSize=14;endSize=14;sourcePerimeterSpacing=8;targetPerimeterSpacing=8;" edge="1" parent="WIyWlLk6GJQsqaUBKTNV-1" source="CoUMW_o9CPJdUUEnbHTe-35" target="CoUMW_o9CPJdUUEnbHTe-38">
          <mxGeometry relative="1" as="geometry">
            <mxPoint x="-252" y="230" as="sourcePoint" />
            <mxPoint x="-28" y="230" as="targetPoint" />
          </mxGeometry>
        </mxCell>
        <mxCell id="CoUMW_o9CPJdUUEnbHTe-41" style="edgeStyle=none;curved=1;rounded=0;orthogonalLoop=1;jettySize=auto;html=1;endArrow=open;startSize=14;endSize=14;sourcePerimeterSpacing=8;targetPerimeterSpacing=8;" edge="1" parent="WIyWlLk6GJQsqaUBKTNV-1" source="CoUMW_o9CPJdUUEnbHTe-38" target="CoUMW_o9CPJdUUEnbHTe-40">
          <mxGeometry relative="1" as="geometry" />
        </mxCell>
        <mxCell id="CoUMW_o9CPJdUUEnbHTe-45" style="edgeStyle=none;curved=1;rounded=0;orthogonalLoop=1;jettySize=auto;html=1;endArrow=open;startSize=14;endSize=14;sourcePerimeterSpacing=8;targetPerimeterSpacing=8;" edge="1" parent="WIyWlLk6GJQsqaUBKTNV-1" source="CoUMW_o9CPJdUUEnbHTe-38">
          <mxGeometry relative="1" as="geometry">
            <mxPoint x="-10" y="360" as="targetPoint" />
          </mxGeometry>
        </mxCell>
        <mxCell id="CoUMW_o9CPJdUUEnbHTe-46" style="edgeStyle=none;curved=1;rounded=0;orthogonalLoop=1;jettySize=auto;html=1;entryX=0;entryY=0;entryDx=0;entryDy=0;endArrow=open;startSize=14;endSize=14;sourcePerimeterSpacing=8;targetPerimeterSpacing=8;" edge="1" parent="WIyWlLk6GJQsqaUBKTNV-1" source="CoUMW_o9CPJdUUEnbHTe-38" target="CoUMW_o9CPJdUUEnbHTe-43">
          <mxGeometry relative="1" as="geometry" />
        </mxCell>
        <mxCell id="CoUMW_o9CPJdUUEnbHTe-38" value="load start up folder" style="rounded=0;whiteSpace=wrap;html=1;fillColor=#6a00ff;fontColor=#ffffff;strokeColor=#3700CC;" vertex="1" parent="WIyWlLk6GJQsqaUBKTNV-1">
          <mxGeometry x="-200" y="275" width="120" height="45" as="geometry" />
        </mxCell>
        <mxCell id="CoUMW_o9CPJdUUEnbHTe-40" value="EXE" style="whiteSpace=wrap;html=1;fillColor=#dae8fc;strokeColor=#6c8ebf;" vertex="1" parent="WIyWlLk6GJQsqaUBKTNV-1">
          <mxGeometry x="-10" y="280" width="60" height="40" as="geometry" />
        </mxCell>
        <mxCell id="CoUMW_o9CPJdUUEnbHTe-42" value="EXE" style="whiteSpace=wrap;html=1;fillColor=#dae8fc;strokeColor=#6c8ebf;" vertex="1" parent="WIyWlLk6GJQsqaUBKTNV-1">
          <mxGeometry x="-10" y="340" width="60" height="40" as="geometry" />
        </mxCell>
        <mxCell id="CoUMW_o9CPJdUUEnbHTe-43" value="REG" style="whiteSpace=wrap;html=1;fillColor=#dae8fc;strokeColor=#6c8ebf;" vertex="1" parent="WIyWlLk6GJQsqaUBKTNV-1">
          <mxGeometry x="-70" y="410" width="60" height="40" as="geometry" />
        </mxCell>
        <mxCell id="CoUMW_o9CPJdUUEnbHTe-55" value="" style="edgeStyle=none;curved=1;rounded=0;orthogonalLoop=1;jettySize=auto;html=1;endArrow=open;startSize=14;endSize=14;sourcePerimeterSpacing=8;targetPerimeterSpacing=8;" edge="1" parent="WIyWlLk6GJQsqaUBKTNV-1" source="CoUMW_o9CPJdUUEnbHTe-52" target="CoUMW_o9CPJdUUEnbHTe-54">
          <mxGeometry relative="1" as="geometry" />
        </mxCell>
        <mxCell id="CoUMW_o9CPJdUUEnbHTe-52" value="User lounch&amp;nbsp;MANger exe" style="rounded=1;whiteSpace=wrap;html=1;fillColor=#6a00ff;fontColor=#ffffff;strokeColor=#3700CC;" vertex="1" parent="WIyWlLk6GJQsqaUBKTNV-1">
          <mxGeometry x="-40" y="-190" width="120" height="60" as="geometry" />
        </mxCell>
        <mxCell id="CoUMW_o9CPJdUUEnbHTe-56" style="edgeStyle=none;curved=1;rounded=0;orthogonalLoop=1;jettySize=auto;html=1;endArrow=open;startSize=14;endSize=14;sourcePerimeterSpacing=8;targetPerimeterSpacing=8;" edge="1" parent="WIyWlLk6GJQsqaUBKTNV-1" source="CoUMW_o9CPJdUUEnbHTe-54" target="CoUMW_o9CPJdUUEnbHTe-5">
          <mxGeometry relative="1" as="geometry" />
        </mxCell>
        <mxCell id="CoUMW_o9CPJdUUEnbHTe-54" value="manger edotior" style="ellipse;whiteSpace=wrap;html=1;fillColor=#d80073;strokeColor=#A50040;fontColor=#ffffff;rounded=1;" vertex="1" parent="WIyWlLk6GJQsqaUBKTNV-1">
          <mxGeometry x="350" y="-200" width="80" height="80" as="geometry" />
        </mxCell>
      </root>
    </mxGraphModel>
  </diagram>
</mxfile>
